<svg width="512" height="114" version="1.1" xmlns="http://www.w3.org/2000/svg" desc="Created with imagetracer.js version 1.2.6" ><path fill="rgb(0,0,0)" stroke="rgb(0,0,0)" stroke-width="1" opacity="0.7372549019607844" d="M 154 105 L 162 105.5 L 156 106 Q 154.8 109 158.5 108 L 157.5 110 L 155 110 Q 156.3 114.1 153 113 L 154 105 Z " /><path fill="rgb(0,0,0)" stroke="rgb(0,0,0)" stroke-width="1" opacity="0.7372549019607844" d="M 171 105 Q 174.8 103.5 174 106.5 L 176 113 Q 173 114 174 111 L 169.5 111 L 167 112.5 L 171 105 Z M 173 107 L 171 109 L 173 109 L 173 107 Z " /><path fill="rgb(0,0,0)" stroke="rgb(0,0,0)" stroke-width="1" opacity="0.7372549019607844" d="M 185 105 L 187 105 Q 185.9 107.7 188.5 107 L 192.5 105 L 192.5 106 L 188 108.5 L 192 111 Q 193.1 113.7 190.5 113 L 186.5 110 L 186 113 Q 183 114.3 184 110.5 L 185 105 Z " /><path fill="rgb(0,0,0)" stroke="rgb(0,0,0)" stroke-width="1" opacity="0.7372549019607844" d="M 202.5 105 L 203 111 L 207 111 L 207 109.5 L 208 105 Q 211 103.8 210 107.5 L 207.5 113 Q 197.8 116.3 201 106.5 L 202.5 105 Z " /><path fill="rgb(0,0,0)" stroke="rgb(0,0,0)" stroke-width="1" opacity="0.7372549019607844" d="M 219 105 Q 222.3 103.7 221 108.5 L 220 111 L 225 111 L 225 113 L 218 113 L 218 109.5 L 219 105 Z " /><path fill="rgb(0,0,0)" stroke="rgb(0,0,0)" stroke-width="1" opacity="0.7372549019607844" d="M 233.5 105 L 241 105.5 L 238 106 L 237 113 Q 233.7 114.3 235 109.5 L 236 106 Q 232.7 106.8 233.5 105 Z " /><path fill="rgb(0,0,0)" stroke="rgb(0,0,0)" stroke-width="1" opacity="0.7372549019607844" d="M 251.5 105 L 254 106.5 L 256 113 Q 253 114 254 111 L 249.5 111 L 246.5 113 L 247 111.5 L 251.5 105 Z M 252 107 Q 250 110 253 109 L 252 107 Z " /><path fill="rgb(0,0,0)" stroke="rgb(0,0,0)" stroke-width="1" opacity="0.7372549019607844" d="M 265 105 L 272.5 105 L 273 107 L 266 106 L 266 108 L 272 108 L 272 111.5 L 270.5 113 L 264 113 L 264.5 110 L 269.5 111 L 269.5 110 Q 265.8 110.8 265 108.5 L 265 105 Z " /><path fill="rgb(0,0,0)" stroke="rgb(0,0,0)" stroke-width="1" opacity="0.7372549019607844" d="M 293 105 Q 296.3 103.7 295 108.5 L 294 113 Q 291 114.3 292 110.5 L 293 105 Z " /><path fill="rgb(0,0,0)" stroke="rgb(0,0,0)" stroke-width="1" opacity="0.7372549019607844" d="M 304 105 Q 307.3 103.7 306 108.5 L 305 111 L 310 111 L 310 113 L 303 113 L 303 109.5 L 304 105 Z " /><path fill="rgb(0,0,0)" stroke="rgb(0,0,0)" stroke-width="1" opacity="0.7372549019607844" d="M 320.5 105 L 323 109 Q 325.7 110.1 325 107.5 L 329 105 L 328 113 Q 325.3 114.1 326 111.5 L 327 108.5 L 325 109.5 L 323.5 112 L 321.5 109 L 320 113 Q 317.3 114.1 318 111.5 L 320.5 105 Z " /><path fill="rgb(0,0,0)" stroke="rgb(0,0,0)" stroke-width="1" opacity="0.7372549019607844" d="M 338 105 Q 341.3 103.7 340 108.5 L 339 111 L 344 111 L 344 107.5 L 345 105 L 347 105.5 Q 344.8 106.7 346 111.5 L 344.5 113 Q 338.5 114.5 337 111.5 L 338 105 Z " /><path fill="rgb(0,0,0)" stroke="rgb(0,0,0)" stroke-width="1" opacity="0.7372549019607844" d="M 367 105 Q 369.7 103.9 369 106.5 L 370.5 106 L 374.5 105 L 374.5 106 L 370 108.5 L 373.5 113 L 368.5 110 L 368 113 Q 364.7 114.3 366 109.5 L 367 105 Z " /><path fill="rgb(0,0,0)" stroke="rgb(0,0,0)" stroke-width="1" opacity="0.7372549019607844" d="M 384.5 105 L 392 105 L 392 110.5 L 391 113 L 383.5 113 L 382 111.5 L 384.5 105 Z M 385 106 L 384 110 L 385 111 L 390 111 Q 393 104 385 106 Z " /><path fill="rgb(0,0,0)" stroke="rgb(0,0,0)" stroke-width="1" opacity="0.7372549019607844" d="M 401 105 L 405 107.5 L 405.5 109 L 411 105 L 410 113 Q 407 114.3 408 110.5 L 409 108.5 L 407 109.5 L 405.5 112 L 404 109 L 402 109 Q 403.7 114.2 400 113 L 401 105 Z " /><path fill="rgb(0,0,0)" stroke="rgb(0,0,0)" stroke-width="1" opacity="0.7372549019607844" d="M 420 105 L 428 105 L 428 108.5 Q 426.4 111.5 421 110 Q 422.3 114.1 419 113 L 420 105 Z M 422 106 Q 421 110 426 108 Q 427 104 422 106 Z " /><path fill="rgb(0,0,0)" stroke="rgb(0,0,0)" stroke-width="1" opacity="0.7372549019607844" d="M 437 105 L 439 105.5 L 438 111 Q 441.8 112 443 109.5 Q 441.3 103.7 445 105 Q 445.7 110.3 442.5 113 L 436 113 L 436 107.5 L 437 105 Z " /><path fill="rgb(0,0,0)" stroke="rgb(0,0,0)" stroke-width="1" opacity="0.7372549019607844" d="M 452.5 105 L 461 105.5 L 457 106 Q 458.5 111.4 455.5 113 L 455 107.5 L 455.5 106 Q 451.5 106.8 452.5 105 Z " /><path fill="rgb(0,0,0)" stroke="rgb(0,0,0)" stroke-width="1" opacity="0.7372549019607844" d="M 468 105 L 476 105.5 L 470 106 Q 468.8 109 472.5 108 L 472.5 109 L 469 110.5 L 475 111 L 474.5 113 L 467 113 L 468 105 Z " /><path fill="rgb(0,0,0)" stroke="rgb(0,0,0)" stroke-width="1" opacity="0.7372549019607844" d="M 484 105 L 492 105 L 492 108.5 L 490 110.5 L 491.5 113 Q 488.2 114.1 489 111.5 L 485 110 Q 486.3 114.1 483 113 L 484 105 Z M 486 106 Q 485 110 490 108 Q 491 104 486 106 Z " /><path fill="rgb(243,117,24)" stroke="rgb(243,117,24)" stroke-width="1" opacity="0.9921568627450981" d="M 34.5 1 L 27 9.5 L 22.5 16 L 22 13.5 L 21.5 12 L 16.5 16 L 20.5 11 L 34.5 1 Z " /><path fill="rgb(243,117,24)" stroke="rgb(243,117,24)" stroke-width="1" opacity="0.9921568627450981" d="M 453.5 18 L 465.5 18 L 467 19.5 L 467 29.5 L 464.5 30 L 455 20.5 L 455 19 L 453.5 18 Z " /><path fill="rgb(243,117,24)" stroke="rgb(243,117,24)" stroke-width="1" opacity="0.9921568627450981" d="M 100.5 19 L 104 20.5 L 112 39.5 L 111 39.5 L 110.5 38 L 109.5 41 L 109 35 Q 103.4 32.8 105 38.5 L 104 38.5 L 102.5 36 L 100.5 37 L 96.5 35 Q 93.8 34.4 95 40.5 L 94 40.5 L 94 34 L 91.5 34 L 89.5 37 L 89 34 L 86.5 35 L 85 34.5 L 83.5 37 L 84 35.5 Q 85.9 27.9 91.5 24 L 100.5 19 Z " /><path fill="rgb(243,117,24)" stroke="rgb(243,117,24)" stroke-width="1" opacity="0.9921568627450981" d="M 301.5 20 L 324.5 21 L 326 22.5 L 324 25.5 L 325 28.5 L 320.5 41 L 320.5 39 L 311.5 38 L 307.5 38 L 302 37 L 303 47 L 296 47 L 296 42.5 Q 298.3 41.2 297 36.5 L 299 33.5 L 298.5 32 L 300 32.5 L 299 28.5 L 300 23 Q 302.7 24.1 302 21.5 L 301.5 20 Z " /><path fill="rgb(243,117,24)" stroke="rgb(243,117,24)" stroke-width="1" opacity="0.9921568627450981" d="M 335.5 22 L 338.5 23 L 349.5 23 L 356.5 25 L 358 24.5 L 355.5 28 L 354 28.5 Q 356.5 30 353 31.5 L 344.5 44 L 345 42.5 Q 345.8 40.3 343.5 41 L 339.5 42 L 328.5 39 L 325.5 41 L 326 39.5 L 333.5 26 L 335 25.5 L 334.5 24 L 336 23.5 L 335.5 22 Z " /><path fill="rgb(243,117,24)" stroke="rgb(243,117,24)" stroke-width="1" opacity="0.9921568627450981" d="M 126.5 25 L 129.5 27 Q 138.1 33.9 137 50.5 L 136 50.5 L 135.5 43 L 131 45.5 L 132 47.5 L 131.5 49 L 133 49.5 L 131 50.5 L 128.5 46 L 127 45.5 L 129 45 L 130 39.5 Q 127.7 33.3 118 34.5 L 126.5 25 Z " /><path fill="rgb(243,117,24)" stroke="rgb(243,117,24)" stroke-width="1" opacity="0.9921568627450981" d="M 371.5 25 L 374.5 26 L 376.5 26 L 387.5 26 L 388.5 27 L 400.5 27 L 401.5 28 L 412.5 28 L 419 29 L 419.5 31 L 421 30.5 L 421 36.5 L 418 49 L 394 47 L 396 31.5 L 394.5 29 L 392.5 30 L 391 29.5 L 388 34.5 L 384.5 49 L 384 45 L 367.5 44 L 366.5 43 L 364.5 43 L 362 44.5 L 361.5 46 L 361 44.5 L 363 35.5 L 367.5 28 L 371.5 25 Z " /><path fill="rgb(243,117,24)" stroke="rgb(243,117,24)" stroke-width="1" opacity="0.9921568627450981" d="M 431.5 30 L 432.5 32 L 433 30 L 438.5 31 L 440.5 31 L 463.5 32 L 466 33.5 L 432.5 51 L 432.5 49 L 428 51.5 L 427.5 53 L 427 51.5 L 430 35.5 L 432 33.5 L 431.5 30 Z " /><path fill="rgb(243,117,24)" stroke="rgb(243,117,24)" stroke-width="1" opacity="0.9921568627450981" d="M 116.5 38 L 124.5 38 L 126 39.5 Q 126.8 43.3 124.5 44 L 117 44 L 117 39.5 L 116.5 38 Z " /><path fill="rgb(243,117,24)" stroke="rgb(243,117,24)" stroke-width="1" opacity="0.9921568627450981" d="M 119.5 48 Q 124.9 47.4 127 49 L 126.5 53 L 124.5 49 L 122.5 50 L 119.5 49 L 119.5 48 Z " /><path fill="rgb(7,183,221)" stroke="rgb(7,183,221)" stroke-width="1" opacity="0.9764705882352941" d="M 171.5 18 L 213.5 18 L 214 20.5 L 211 34 L 193.5 34 L 193 36.5 L 189 49 L 205 48 L 203.5 54 L 201.5 50 L 196.5 51 L 194.5 50 Q 193.3 52.3 188.5 51 L 186.5 50 L 183 51.5 Q 183.9 54.9 178.5 53 L 174.5 53 L 172.5 54 L 169.5 53 L 166 53.5 L 166.5 55 Q 165.3 52.7 164 55.5 L 163.5 58 L 163 55.5 L 170 19.5 L 171.5 18 Z " /><path fill="rgb(7,183,221)" stroke="rgb(7,183,221)" stroke-width="1" opacity="0.9764705882352941" d="M 219 18 L 244.5 18 L 245 21.5 L 234.5 63 L 229.5 60 L 229.5 62 L 227 61.5 L 227.5 60 L 224.5 59 L 223.5 60 L 220.5 57 L 218 57.5 L 218.5 59 L 212 57 L 213 52.5 L 212 49.5 L 219 18 Z " /><path fill="rgb(7,183,221)" stroke="rgb(7,183,221)" stroke-width="1" opacity="0.9764705882352941" d="M 255.5 18 L 281 18.5 L 275 41.5 L 275 45.5 L 271.5 55 L 270.5 53 L 257.5 68 L 257.5 66 L 255 66.5 L 255.5 68 L 249.5 64 L 247.5 64 Q 245.3 63.3 246 65.5 L 245 65.5 L 249 41.5 L 254 19.5 L 255.5 18 Z " /><path fill="rgb(7,183,221)" stroke="rgb(7,183,221)" stroke-width="1" opacity="0.9764705882352941" d="M 211.5 58 L 212 60.5 L 211 60.5 L 211.5 58 Z " /><path fill="rgb(7,183,221)" stroke="rgb(7,183,221)" stroke-width="1" opacity="0.9764705882352941" d="M 162.5 59 L 163 61.5 L 162 61.5 L 162.5 59 Z " /><path fill="rgb(7,183,221)" stroke="rgb(7,183,221)" stroke-width="1" opacity="0.9764705882352941" d="M 187.5 62 L 192 62.5 L 187.5 63 L 187.5 62 Z " /><path fill="rgb(7,183,221)" stroke="rgb(7,183,221)" stroke-width="1" opacity="0.9764705882352941" d="M 233.5 65 L 234 67.5 L 233 67.5 L 233.5 65 Z " /><path fill="rgb(246,130,29)" stroke="rgb(246,130,29)" stroke-width="1" opacity="0.9764705882352941" d="M 387.5 17 Q 410.7 13.8 419 25.5 L 420 30.5 L 419 30.5 Q 419.6 27.8 413.5 29 L 412.5 28 L 388.5 27 L 387.5 26 L 376.5 26 L 375.5 25 L 373.5 25 Q 369 24.5 368.5 28 L 373.5 22 L 387.5 17 Z " /><path fill="rgb(246,130,29)" stroke="rgb(246,130,29)" stroke-width="1" opacity="0.9764705882352941" d="M 104.5 18 L 114.5 18 Q 122.3 19.7 127 24.5 L 117.5 35 L 113 35.5 L 114 37.5 L 112.5 41 L 103 19.5 L 104.5 18 Z " /><path fill="rgb(246,130,29)" stroke="rgb(246,130,29)" stroke-width="1" opacity="0.9764705882352941" d="M 302.5 18 L 325.5 18 L 327 19.5 L 325.5 22 L 324.5 21 L 312.5 21 L 311.5 20 L 301 19.5 L 302.5 18 Z " /><path fill="rgb(246,130,29)" stroke="rgb(246,130,29)" stroke-width="1" opacity="0.9764705882352941" d="M 338.5 18 L 360.5 18 L 361 19.5 L 356.5 25 L 349.5 23 L 338.5 23 L 337.5 22 L 335 23.5 L 338.5 18 Z " /><path fill="rgb(246,130,29)" stroke="rgb(246,130,29)" stroke-width="1" opacity="0.9764705882352941" d="M 434 18 L 452.5 18 L 455 19 L 455 20.5 L 464.5 30 L 467 31.5 L 464.5 33 L 463.5 32 L 452.5 32 L 451.5 31 L 440.5 31 L 439.5 30 L 437.5 30 Q 432.1 28.1 433 31.5 L 432 31.5 L 432 26.5 L 434 18 Z " /><path fill="rgb(246,130,29)" stroke="rgb(246,130,29)" stroke-width="1" opacity="0.9764705882352941" d="M 299.5 30 L 300 32.5 L 298.5 35 L 298 33.5 L 299.5 30 Z " /><path fill="rgb(242,109,20)" stroke="rgb(242,109,20)" stroke-width="1" opacity="0.984313725490196" d="M 22.5 9 L 21.5 11 L 22.5 9 Z " /><path fill="rgb(242,109,20)" stroke="rgb(242,109,20)" stroke-width="1" opacity="0.984313725490196" d="M 23.5 11 L 25 13.5 L 23 12.5 L 23.5 11 Z " /><path fill="rgb(242,109,20)" stroke="rgb(242,109,20)" stroke-width="1" opacity="0.984313725490196" d="M 21.5 12 L 23 14.5 L 22.5 17 L 21 17.5 L 21.5 19 L 20 19.5 L 20 21.5 L 18.5 24 L 12 18.5 L 17.5 13 L 19.5 13 L 21.5 12 Z " /><path fill="rgb(242,109,20)" stroke="rgb(242,109,20)" stroke-width="1" opacity="0.984313725490196" d="M 479.5 19 L 510.5 19 L 511 24 L 508 23.5 L 510 23 L 509.5 20 L 479.5 20 L 479.5 19 Z " /><path fill="rgb(242,109,20)" stroke="rgb(242,109,20)" stroke-width="1" opacity="0.984313725490196" d="M 506.5 23 L 505.5 25 L 504 24.5 L 506.5 23 Z " /><path fill="rgb(242,109,20)" stroke="rgb(242,109,20)" stroke-width="1" opacity="0.984313725490196" d="M 477.5 24 L 478 25.5 L 475.5 31 L 475 29.5 L 477.5 24 Z " /><path fill="rgb(242,109,20)" stroke="rgb(242,109,20)" stroke-width="1" opacity="0.984313725490196" d="M 84.5 33 Q 86 36.5 87.5 34 Q 90.1 33.2 89 36.5 L 90 36.5 L 91.5 34 L 94 34.5 L 91 35 L 91 43 L 85.5 43 L 81 44 Q 80.3 40.6 83 39.5 L 82 37 L 84 36.5 L 83.5 35 L 85 35.5 L 84.5 33 Z " /><path fill="rgb(242,109,20)" stroke="rgb(242,109,20)" stroke-width="1" opacity="0.984313725490196" d="M 95 35 L 98.5 37 L 101.5 36 L 104 37.5 L 104.5 39 L 105.5 35 L 106 41.5 L 105 41.5 L 104.5 40 L 104 42 L 94 43 L 95 35 Z " /><path fill="rgb(242,109,20)" stroke="rgb(242,109,20)" stroke-width="1" opacity="0.984313725490196" d="M 302 37 L 307.5 38 L 311.5 38 L 320.5 39 L 322 40.5 L 320 43.5 L 321.5 46 L 323.5 43 L 325 42.5 L 324.5 41 L 326 40.5 L 325.5 39 L 327.5 40 L 329.5 40 L 342.5 42 L 345 41 L 346 43.5 L 343 45.5 Q 345.5 47 342 48.5 L 338.5 54 L 337.5 51 L 334.5 52 L 332.5 52 L 327.5 50 L 324.5 51 L 319.5 49 L 317.5 50 L 315.5 50 Q 311.1 51.5 312 48.5 L 310.5 49 Q 302.7 46.3 305 53.5 L 306 57 L 302.5 56 L 298.5 56 L 295.5 54 L 293.5 58 L 293 55.5 L 294 50.5 L 296 48.5 L 295 45.5 L 296 45.5 L 296.5 47 L 303 47 L 302 37 Z " /><path fill="rgb(242,109,20)" stroke="rgb(242,109,20)" stroke-width="1" opacity="0.984313725490196" d="M 110.5 38 L 112 40.5 L 109.5 42 L 110 40.5 L 110.5 38 Z " /><path fill="rgb(242,109,20)" stroke="rgb(242,109,20)" stroke-width="1" opacity="0.984313725490196" d="M 116.5 39 L 117 44 L 124 44.5 L 117.5 45 Q 114.6 43.6 116.5 39 Z " /><path fill="rgb(242,109,20)" stroke="rgb(242,109,20)" stroke-width="1" opacity="0.984313725490196" d="M 129.5 39 L 130 42.5 L 129 42.5 L 129.5 39 Z " /><path fill="rgb(242,109,20)" stroke="rgb(242,109,20)" stroke-width="1" opacity="0.984313725490196" d="M 347.5 40 L 346.5 42 L 347.5 40 Z " /><path fill="rgb(242,109,20)" stroke="rgb(242,109,20)" stroke-width="1" opacity="0.984313725490196" d="M 361.5 42 L 362.5 44 L 364.5 43 L 367.5 44 L 384 45 L 385 50.5 L 382.5 58 L 382 54 L 374.5 56 L 372 55.5 L 371.5 54 L 370.5 56 L 360.5 54 L 359 54.5 L 360 46 Q 362.7 47.1 362 44.5 L 361.5 42 Z " /><path fill="rgb(242,109,20)" stroke="rgb(242,109,20)" stroke-width="1" opacity="0.984313725490196" d="M 135.5 43 L 137 52.5 L 132.5 62 L 128 56.5 L 131 54.5 L 130 52.5 L 130 50.5 L 132 47.5 L 131 45.5 L 135.5 43 Z M 131 49 L 131 51 L 133 50 L 131 49 Z " /><path fill="rgb(242,109,20)" stroke="rgb(242,109,20)" stroke-width="1" opacity="0.984313725490196" d="M 128.5 44 L 130 45.5 L 129.5 48 L 128 46.5 L 128.5 44 Z " /><path fill="rgb(242,109,20)" stroke="rgb(242,109,20)" stroke-width="1" opacity="0.984313725490196" d="M 393.5 46 L 394.5 47 L 418 49 L 417.5 52 L 416 51.5 L 417 55.5 L 415 58.5 L 415.5 60 Q 412.9 60.7 414 58 L 410.5 58 L 408.5 58 L 406.5 57 L 404.5 57 L 403 57.5 L 403.5 59 L 401.5 57 L 397.5 57 L 395.5 56 L 392 57 L 391.5 60 L 391 56.5 L 392 50 Q 394.7 51.1 394 48.5 L 393.5 46 Z " /><path fill="rgb(242,109,20)" stroke="rgb(242,109,20)" stroke-width="1" opacity="0.984313725490196" d="M 118.5 47 L 124 47.5 L 118.5 48 L 118.5 47 Z " /><path fill="rgb(242,109,20)" stroke="rgb(242,109,20)" stroke-width="1" opacity="0.984313725490196" d="M 125.5 48 L 126 50.5 L 127 53.5 L 125.5 55 L 120 49.5 L 121.5 49 L 123.5 49 L 125.5 48 Z " /><path fill="rgb(242,109,20)" stroke="rgb(242,109,20)" stroke-width="1" opacity="0.984313725490196" d="M 427.5 48 L 428.5 51 L 432.5 49 L 433.5 51 L 432 50.5 Q 432.8 52.8 430.5 52 L 426.5 54 L 426.5 53 Q 428.8 53.8 428 51.5 L 427.5 48 Z " /><path fill="rgb(242,109,20)" stroke="rgb(242,109,20)" stroke-width="1" opacity="0.984313725490196" d="M 141.5 63 L 146 65.5 L 144.5 65 Q 140.8 64.8 141.5 63 Z " /><path fill="rgb(235,72,7)" stroke="rgb(235,72,7)" stroke-width="1" opacity="0.5333333333333333" d="M 30.5 6 L 28.5 9 L 30.5 6 Z " /><path fill="rgb(235,72,7)" stroke="rgb(235,72,7)" stroke-width="1" opacity="0.5333333333333333" d="M 24.5 7 L 23.5 9 L 24.5 7 Z " /><path fill="rgb(235,72,7)" stroke="rgb(235,72,7)" stroke-width="1" opacity="0.5333333333333333" d="M 20.5 10 L 18.5 13 L 20.5 10 Z " /><path fill="rgb(235,72,7)" stroke="rgb(235,72,7)" stroke-width="1" opacity="0.5333333333333333" d="M 26.5 11 L 25.5 13 L 26.5 11 Z " /><path fill="rgb(235,72,7)" stroke="rgb(235,72,7)" stroke-width="1" opacity="0.5333333333333333" d="M 24.5 14 L 23.5 16 L 24.5 14 Z " /><path fill="rgb(235,72,7)" stroke="rgb(235,72,7)" stroke-width="1" opacity="0.5333333333333333" d="M 480.5 18 L 512 18.5 L 480.5 19 L 480.5 18 Z " /><path fill="rgb(235,72,7)" stroke="rgb(235,72,7)" stroke-width="1" opacity="0.5333333333333333" d="M 10.5 20 L 7.5 24 L 10.5 20 Z " /><path fill="rgb(235,72,7)" stroke="rgb(235,72,7)" stroke-width="1" opacity="0.5333333333333333" d="M 93.5 22 L 92.5 24 L 93.5 22 Z " /><path fill="rgb(235,72,7)" stroke="rgb(235,72,7)" stroke-width="1" opacity="0.5333333333333333" d="M 416.5 22 L 417.5 24 L 416.5 22 Z " /><path fill="rgb(235,72,7)" stroke="rgb(235,72,7)" stroke-width="1" opacity="0.5333333333333333" d="M 127.5 24 L 131.5 29 L 127.5 24 Z " /><path fill="rgb(235,72,7)" stroke="rgb(235,72,7)" stroke-width="1" opacity="0.5333333333333333" d="M 370.5 24 L 366.5 29 L 370.5 24 Z " /><path fill="rgb(235,72,7)" stroke="rgb(235,72,7)" stroke-width="1" opacity="0.5333333333333333" d="M 6.5 25 L 5.5 27 L 6.5 25 Z " /><path fill="rgb(235,72,7)" stroke="rgb(235,72,7)" stroke-width="1" opacity="0.5333333333333333" d="M 4.5 28 L 3.5 30 L 4.5 28 Z " /><path fill="rgb(235,72,7)" stroke="rgb(235,72,7)" stroke-width="1" opacity="0.5333333333333333" d="M 17.5 29 L 18 32.5 L 17 32.5 L 17.5 29 Z " /><path fill="rgb(235,72,7)" stroke="rgb(235,72,7)" stroke-width="1" opacity="0.5333333333333333" d="M 86.5 29 L 85.5 31 L 86.5 29 Z " /><path fill="rgb(235,72,7)" stroke="rgb(235,72,7)" stroke-width="1" opacity="0.5333333333333333" d="M 466.5 32 L 467 37.5 L 466 37.5 L 466.5 32 Z " /><path fill="rgb(235,72,7)" stroke="rgb(235,72,7)" stroke-width="1" opacity="0.5333333333333333" d="M 93.5 35 L 94 50.5 L 93 50.5 L 93.5 35 Z " /><path fill="rgb(235,72,7)" stroke="rgb(235,72,7)" stroke-width="1" opacity="0.5333333333333333" d="M 108.5 35 L 109 49.5 L 108 49.5 L 108.5 35 Z " /><path fill="rgb(235,72,7)" stroke="rgb(235,72,7)" stroke-width="1" opacity="0.5333333333333333" d="M 350.5 36 L 349.5 38 L 350.5 36 Z " /><path fill="rgb(235,72,7)" stroke="rgb(235,72,7)" stroke-width="1" opacity="0.5333333333333333" d="M 116.5 37 L 124 37.5 L 116.5 38 L 116.5 37 Z " /><path fill="rgb(235,72,7)" stroke="rgb(235,72,7)" stroke-width="1" opacity="0.5333333333333333" d="M 17.5 38 L 18 41.5 L 17 41.5 L 17.5 38 Z " /><path fill="rgb(235,72,7)" stroke="rgb(235,72,7)" stroke-width="1" opacity="0.5333333333333333" d="M 125.5 38 L 126.5 40 L 125.5 38 Z " /><path fill="rgb(235,72,7)" stroke="rgb(235,72,7)" stroke-width="1" opacity="0.5333333333333333" d="M 113.5 40 L 114 57.5 L 113 57.5 L 113.5 40 Z " /><path fill="rgb(235,72,7)" stroke="rgb(235,72,7)" stroke-width="1" opacity="0.5333333333333333" d="M 137.5 43 L 138 49.5 L 137 49.5 L 137.5 43 Z " /><path fill="rgb(235,72,7)" stroke="rgb(235,72,7)" stroke-width="1" opacity="0.5333333333333333" d="M 126.5 45 L 127.5 47 L 126.5 45 Z " /><path fill="rgb(235,72,7)" stroke="rgb(235,72,7)" stroke-width="1" opacity="0.5333333333333333" d="M 321.5 45 L 320.5 47 L 321.5 45 Z " /><path fill="rgb(235,72,7)" stroke="rgb(235,72,7)" stroke-width="1" opacity="0.5333333333333333" d="M 0.5 47 L 1 49.5 L 0 49.5 L 0.5 47 Z " /><path fill="rgb(235,72,7)" stroke="rgb(235,72,7)" stroke-width="1" opacity="0.5333333333333333" d="M 343.5 47 L 342.5 49 L 343.5 47 Z " /><path fill="rgb(235,72,7)" stroke="rgb(235,72,7)" stroke-width="1" opacity="0.5333333333333333" d="M 76.5 48 L 75.5 50 L 74 49.5 L 76.5 48 Z " /><path fill="rgb(235,72,7)" stroke="rgb(235,72,7)" stroke-width="1" opacity="0.5333333333333333" d="M 67.5 49 L 70 49.5 L 67.5 50 L 67.5 49 Z " /><path fill="rgb(235,72,7)" stroke="rgb(235,72,7)" stroke-width="1" opacity="0.5333333333333333" d="M 127.5 50 L 128 52.5 L 127 52.5 L 127.5 50 Z " /><path fill="rgb(235,72,7)" stroke="rgb(235,72,7)" stroke-width="1" opacity="0.5333333333333333" d="M 465 50 L 467 50.5 L 465.5 53 L 465 50 Z " /><path fill="rgb(235,72,7)" stroke="rgb(235,72,7)" stroke-width="1" opacity="0.5333333333333333" d="M 482.5 50 L 483 52 L 481 51.5 L 482.5 50 Z " /><path fill="rgb(235,72,7)" stroke="rgb(235,72,7)" stroke-width="1" opacity="0.5333333333333333" d="M 54.5 53 L 53 55.5 L 52.5 59 L 52 55.5 L 54.5 53 Z " /><path fill="rgb(235,72,7)" stroke="rgb(235,72,7)" stroke-width="1" opacity="0.5333333333333333" d="M 94.5 53 L 96.5 56 L 94.5 53 Z " /><path fill="rgb(235,72,7)" stroke="rgb(235,72,7)" stroke-width="1" opacity="0.5333333333333333" d="M 480.5 53 L 482 55.5 L 481 55.5 L 480.5 53 Z " /><path fill="rgb(235,72,7)" stroke="rgb(235,72,7)" stroke-width="1" opacity="0.5333333333333333" d="M 107.5 54 L 104.5 58 L 107.5 54 Z " /><path fill="rgb(235,72,7)" stroke="rgb(235,72,7)" stroke-width="1" opacity="0.5333333333333333" d="M 65.5 55 L 68 59.5 L 65 57.5 L 65.5 55 Z " /><path fill="rgb(235,72,7)" stroke="rgb(235,72,7)" stroke-width="1" opacity="0.5333333333333333" d="M 92.5 55 L 94.5 58 L 92.5 55 Z " /><path fill="rgb(235,72,7)" stroke="rgb(235,72,7)" stroke-width="1" opacity="0.5333333333333333" d="M 116.5 55 L 125 55.5 L 116.5 56 L 116.5 55 Z " /><path fill="rgb(235,72,7)" stroke="rgb(235,72,7)" stroke-width="1" opacity="0.5333333333333333" d="M 24.5 56 L 27.5 60 L 24.5 56 Z " /><path fill="rgb(235,72,7)" stroke="rgb(235,72,7)" stroke-width="1" opacity="0.5333333333333333" d="M 449.5 56 L 450 68.5 L 449 68.5 L 449.5 56 Z " /><path fill="rgb(235,72,7)" stroke="rgb(235,72,7)" stroke-width="1" opacity="0.5333333333333333" d="M 98.5 58 L 102 58.5 L 98.5 59 L 98.5 58 Z " /><path fill="rgb(235,72,7)" stroke="rgb(235,72,7)" stroke-width="1" opacity="0.5333333333333333" d="M 340.5 58 L 341 60.5 L 340 60.5 L 340.5 58 Z " /><path fill="rgb(235,72,7)" stroke="rgb(235,72,7)" stroke-width="1" opacity="0.5333333333333333" d="M 84.5 60 L 85.5 62 L 84.5 60 Z " /><path fill="rgb(235,72,7)" stroke="rgb(235,72,7)" stroke-width="1" opacity="0.5333333333333333" d="M 502.5 60 L 503 62.5 L 502 62.5 L 502.5 60 Z " /><path fill="rgb(235,72,7)" stroke="rgb(235,72,7)" stroke-width="1" opacity="0.5333333333333333" d="M 30.5 61 L 31.5 63 L 30.5 61 Z " /><path fill="rgb(235,72,7)" stroke="rgb(235,72,7)" stroke-width="1" opacity="0.5333333333333333" d="M 132.5 62 L 131.5 64 L 132.5 62 Z " /><path fill="rgb(235,72,7)" stroke="rgb(235,72,7)" stroke-width="1" opacity="0.5333333333333333" d="M 141.5 62 L 140.5 64 L 141.5 62 Z " /><path fill="rgb(235,72,7)" stroke="rgb(235,72,7)" stroke-width="1" opacity="0.5333333333333333" d="M 7.5 63 L 8.5 65 L 7.5 63 Z " /><path fill="rgb(235,72,7)" stroke="rgb(235,72,7)" stroke-width="1" opacity="0.5333333333333333" d="M 56.5 63 L 57.5 65 L 56.5 63 Z " /><path fill="rgb(235,72,7)" stroke="rgb(235,72,7)" stroke-width="1" opacity="0.5333333333333333" d="M 86.5 63 L 91.5 69 L 86.5 63 Z " /><path fill="rgb(235,72,7)" stroke="rgb(235,72,7)" stroke-width="1" opacity="0.5333333333333333" d="M 341.5 64 L 342 66.5 L 341 66.5 L 341.5 64 Z " /><path fill="rgb(235,72,7)" stroke="rgb(235,72,7)" stroke-width="1" opacity="0.5333333333333333" d="M 140.5 67 L 139.5 69 L 140.5 67 Z " /><path fill="rgb(235,72,7)" stroke="rgb(235,72,7)" stroke-width="1" opacity="0.5333333333333333" d="M 126.5 68 L 125.5 70 L 126.5 68 Z " /><path fill="rgb(235,72,7)" stroke="rgb(235,72,7)" stroke-width="1" opacity="0.5333333333333333" d="M 12.5 69 L 13.5 71 L 12.5 69 Z " /><path fill="rgb(235,72,7)" stroke="rgb(235,72,7)" stroke-width="1" opacity="0.5333333333333333" d="M 317.5 69 L 318 73.5 L 317 73.5 L 317.5 69 Z " /><path fill="rgb(235,72,7)" stroke="rgb(235,72,7)" stroke-width="1" opacity="0.5333333333333333" d="M 422.5 69 L 423 71.5 L 422 71.5 L 422.5 69 Z " /><path fill="rgb(235,72,7)" stroke="rgb(235,72,7)" stroke-width="1" opacity="0.5333333333333333" d="M 92.5 70 L 95 70.5 L 92.5 71 L 92.5 70 Z " /><path fill="rgb(235,72,7)" stroke="rgb(235,72,7)" stroke-width="1" opacity="0.5333333333333333" d="M 123.5 70 L 123.5 72 L 127 72.5 L 123.5 73 Q 120.5 71.5 123.5 70 Z " /><path fill="rgb(235,72,7)" stroke="rgb(235,72,7)" stroke-width="1" opacity="0.5333333333333333" d="M 342.5 71 L 343 73.5 L 342 73.5 L 342.5 71 Z " /><path fill="rgb(235,72,7)" stroke="rgb(235,72,7)" stroke-width="1" opacity="0.5333333333333333" d="M 149.5 72 L 150 73.5 L 148 74.5 L 149.5 72 Z " /><path fill="rgb(235,72,7)" stroke="rgb(235,72,7)" stroke-width="1" opacity="0.5333333333333333" d="M 17.5 73 L 18.5 75 L 17.5 73 Z " /><path fill="rgb(235,72,7)" stroke="rgb(235,72,7)" stroke-width="1" opacity="0.5333333333333333" d="M 91.5 75 L 94 75.5 L 91.5 76 L 91.5 75 Z " /><path fill="rgb(235,72,7)" stroke="rgb(235,72,7)" stroke-width="1" opacity="0.5333333333333333" d="M 21.5 76 L 22.5 78 L 21.5 76 Z " /><path fill="rgb(235,72,7)" stroke="rgb(235,72,7)" stroke-width="1" opacity="0.5333333333333333" d="M 98.5 76 L 101 76.5 L 98.5 77 L 98.5 76 Z " /><path fill="rgb(235,72,7)" stroke="rgb(235,72,7)" stroke-width="1" opacity="0.5333333333333333" d="M 129.5 76 L 131 76.5 L 128.5 78 L 129.5 76 Z " /><path fill="rgb(235,72,7)" stroke="rgb(235,72,7)" stroke-width="1" opacity="0.5333333333333333" d="M 71.5 77 L 74 77.5 L 71.5 78 L 71.5 77 Z " /><path fill="rgb(235,72,7)" stroke="rgb(235,72,7)" stroke-width="1" opacity="0.5333333333333333" d="M 107.5 77 L 122 77.5 L 107.5 78 L 107.5 77 Z " /><path fill="rgb(235,72,7)" stroke="rgb(235,72,7)" stroke-width="1" opacity="0.5333333333333333" d="M 145.5 77 L 141.5 82 L 145.5 77 Z " /><path fill="rgb(235,72,7)" stroke="rgb(235,72,7)" stroke-width="1" opacity="0.5333333333333333" d="M 353.5 77 L 354 83.5 L 353 83.5 L 353.5 77 Z " /><path fill="rgb(235,72,7)" stroke="rgb(235,72,7)" stroke-width="1" opacity="0.5333333333333333" d="M 78.5 78 L 81 78.5 L 78.5 79 L 78.5 78 Z " /><path fill="rgb(235,72,7)" stroke="rgb(235,72,7)" stroke-width="1" opacity="0.5333333333333333" d="M 343.5 78 L 344 80.5 L 343 80.5 L 343.5 78 Z " /><path fill="rgb(235,72,7)" stroke="rgb(235,72,7)" stroke-width="1" opacity="0.5333333333333333" d="M 420.5 78 L 421 80.5 L 420 80.5 L 420.5 78 Z " /><path fill="rgb(235,72,7)" stroke="rgb(235,72,7)" stroke-width="1" opacity="0.5333333333333333" d="M 498.5 78 L 499 80.5 L 498 80.5 L 498.5 78 Z " /><path fill="rgb(235,72,7)" stroke="rgb(235,72,7)" stroke-width="1" opacity="0.5333333333333333" d="M 86.5 79 L 91 79.5 L 86.5 80 L 86.5 79 Z " /><path fill="rgb(235,72,7)" stroke="rgb(235,72,7)" stroke-width="1" opacity="0.5333333333333333" d="M 119.5 79 L 123 79.5 L 119.5 80 L 119.5 79 Z " /><path fill="rgb(235,72,7)" stroke="rgb(235,72,7)" stroke-width="1" opacity="0.5333333333333333" d="M 378.5 79 L 380 83.5 L 378 82.5 L 378.5 79 Z " /><path fill="rgb(235,72,7)" stroke="rgb(235,72,7)" stroke-width="1" opacity="0.5333333333333333" d="M 99.5 80 L 114 80.5 L 99.5 81 L 99.5 80 Z " /><path fill="rgb(235,72,7)" stroke="rgb(235,72,7)" stroke-width="1" opacity="0.5333333333333333" d="M 318.5 80 L 319 84.5 L 318 84.5 L 318.5 80 Z " /><path fill="rgb(235,72,7)" stroke="rgb(235,72,7)" stroke-width="1" opacity="0.5333333333333333" d="M 384.5 82 L 383.5 84 L 382 83.5 L 384.5 82 Z " /><path fill="rgb(235,72,7)" stroke="rgb(235,72,7)" stroke-width="1" opacity="0.5333333333333333" d="M 448.5 82 L 449 92.5 L 448 92.5 L 448.5 82 Z " /><path fill="rgb(235,72,7)" stroke="rgb(235,72,7)" stroke-width="1" opacity="0.5333333333333333" d="M 137.5 84 L 136.5 86 L 137.5 84 Z " /><path fill="rgb(235,72,7)" stroke="rgb(235,72,7)" stroke-width="1" opacity="0.5333333333333333" d="M 344.5 84 L 345 86.5 L 344 86.5 L 344.5 84 Z " /><path fill="rgb(235,72,7)" stroke="rgb(235,72,7)" stroke-width="1" opacity="0.5333333333333333" d="M 408.5 84 L 406.5 87 L 408.5 84 Z " /><path fill="rgb(235,72,7)" stroke="rgb(235,72,7)" stroke-width="1" opacity="0.5333333333333333" d="M 134.5 86 L 133.5 88 L 134.5 86 Z " /><path fill="rgb(235,72,7)" stroke="rgb(235,72,7)" stroke-width="1" opacity="0.5333333333333333" d="M 355.5 88 L 356.5 90 L 355.5 88 Z " /><path fill="rgb(235,72,7)" stroke="rgb(235,72,7)" stroke-width="1" opacity="0.5333333333333333" d="M 404.5 88 L 402.5 91 L 404.5 88 Z " /><path fill="rgb(235,72,7)" stroke="rgb(235,72,7)" stroke-width="1" opacity="0.5333333333333333" d="M 115.5 90 L 116.5 92 L 115.5 90 Z " /><path fill="rgb(235,72,7)" stroke="rgb(235,72,7)" stroke-width="1" opacity="0.5333333333333333" d="M 128.5 90 L 127.5 92 L 128.5 90 Z " /><path fill="rgb(235,72,7)" stroke="rgb(235,72,7)" stroke-width="1" opacity="0.5333333333333333" d="M 345.5 91 L 346 93.5 L 345 93.5 L 345.5 91 Z " /><path fill="rgb(235,72,7)" stroke="rgb(235,72,7)" stroke-width="1" opacity="0.5333333333333333" d="M 67.5 92 L 70 92.5 L 67.5 93 L 67.5 92 Z " /><path fill="rgb(235,72,7)" stroke="rgb(235,72,7)" stroke-width="1" opacity="0.5333333333333333" d="M 105.5 92 L 108 92.5 L 105.5 93 L 105.5 92 Z " /><path fill="rgb(235,72,7)" stroke="rgb(235,72,7)" stroke-width="1" opacity="0.5333333333333333" d="M 319.5 92 L 320 95 L 346 95.5 L 319 96 L 319.5 92 Z " /><path fill="rgb(235,72,7)" stroke="rgb(235,72,7)" stroke-width="1" opacity="0.5333333333333333" d="M 28.5 93 L 27.5 95 L 28.5 93 Z " /><path fill="rgb(235,72,7)" stroke="rgb(235,72,7)" stroke-width="1" opacity="0.5333333333333333" d="M 76.5 93 L 81 93.5 L 76.5 94 L 76.5 93 Z " /><path fill="rgb(235,72,7)" stroke="rgb(235,72,7)" stroke-width="1" opacity="0.5333333333333333" d="M 96.5 93 L 101 93.5 L 96.5 94 L 96.5 93 Z " /><path fill="rgb(235,72,7)" stroke="rgb(235,72,7)" stroke-width="1" opacity="0.5333333333333333" d="M 123.5 93 L 122.5 95 L 123.5 93 Z " /><path fill="rgb(235,72,7)" stroke="rgb(235,72,7)" stroke-width="1" opacity="0.5333333333333333" d="M 284.5 93 L 285 95 L 310 95.5 L 284 96 L 284.5 93 Z " /><path fill="rgb(235,72,7)" stroke="rgb(235,72,7)" stroke-width="1" opacity="0.5333333333333333" d="M 439.5 94 L 440 96 L 417 95.5 L 438.5 95 L 439.5 94 Z " /><path fill="rgb(235,72,7)" stroke="rgb(235,72,7)" stroke-width="1" opacity="0.5333333333333333" d="M 464.5 94 L 463.5 96 L 448 95.5 L 463.5 95 L 464.5 94 Z " /><path fill="rgb(235,72,7)" stroke="rgb(235,72,7)" stroke-width="1" opacity="0.5333333333333333" d="M 472.5 95 L 495 95.5 L 472.5 96 L 472.5 95 Z " /><path fill="rgb(235,72,7)" stroke="rgb(235,72,7)" stroke-width="1" opacity="0.5333333333333333" d="M 368.5 96 L 371 96.5 L 368.5 97 L 368.5 96 Z " /><path fill="rgb(235,72,7)" stroke="rgb(235,72,7)" stroke-width="1" opacity="0.5333333333333333" d="M 386.5 96 L 389 96.5 L 386.5 97 L 386.5 96 Z " /><path fill="rgb(235,72,7)" stroke="rgb(235,72,7)" stroke-width="1" opacity="0.5333333333333333" d="M 25.5 99 L 26 102.5 L 25 102.5 L 25.5 99 Z " /><path fill="rgb(235,72,7)" stroke="rgb(235,72,7)" stroke-width="1" opacity="0.5333333333333333" d="M 35.5 101 L 36.5 103 L 35.5 101 Z " /><path fill="rgb(235,72,7)" stroke="rgb(235,72,7)" stroke-width="1" opacity="0.5333333333333333" d="M 76.5 105 L 79 105.5 L 76.5 106 L 76.5 105 Z " /><path fill="rgb(235,72,7)" stroke="rgb(235,72,7)" stroke-width="1" opacity="0.5333333333333333" d="M 27.5 106 L 29.5 109 L 27.5 106 Z " /><path fill="rgb(235,72,7)" stroke="rgb(235,72,7)" stroke-width="1" opacity="0.5333333333333333" d="M 49.5 106 L 53 106.5 L 49.5 107 L 49.5 106 Z " /><path fill="rgb(235,72,7)" stroke="rgb(235,72,7)" stroke-width="1" opacity="0.5333333333333333" d="M 66.5 106 L 71 106.5 L 66.5 107 L 66.5 106 Z " /><path fill="rgb(235,72,7)" stroke="rgb(235,72,7)" stroke-width="1" opacity="0.5333333333333333" d="M 70.5 112 L 73 112.5 L 70.5 113 L 70.5 112 Z " /><path fill="rgb(235,72,7)" stroke="rgb(235,72,7)" stroke-width="1" opacity="0.5333333333333333" d="M 41.5 113 L 44 113.5 L 41.5 114 L 41.5 113 Z " /><path fill="rgb(235,72,7)" stroke="rgb(235,72,7)" stroke-width="1" opacity="0.5333333333333333" d="M 62.5 113 L 66 113.5 L 62.5 114 L 62.5 113 Z " /><path fill="rgb(239,89,14)" stroke="rgb(239,89,14)" stroke-width="1" opacity="0.9921568627450981" d="M 11.5 21 L 15.5 24 Q 17.3 21.3 19 25.5 L 16.5 26 L 11.5 21 Z " /><path fill="rgb(239,89,14)" stroke="rgb(239,89,14)" stroke-width="1" opacity="0.9921568627450981" d="M 16.5 27 L 17.5 29 L 16.5 27 Z " /><path fill="rgb(239,89,14)" stroke="rgb(239,89,14)" stroke-width="1" opacity="0.9921568627450981" d="M 476.5 39 L 478.5 40 L 480.5 39 L 483.5 40 L 485.5 40 L 489.5 41 L 493.5 41 L 501.5 42 L 503.5 42 Q 506.1 41.2 505 44.5 L 506 46.5 L 505 46.5 L 504.5 45 L 504 48.5 L 505 50.5 L 501.5 60 L 502 58.5 Q 503.1 55.2 500.5 56 L 497.5 57 L 496 56.5 L 497.5 59 Q 500.1 58.3 499 61 L 502 61 L 502 63.5 L 500.5 67 L 498.5 63 Q 492.5 64 490.5 61 L 489.5 62 L 487 60.5 L 486.5 62 L 484.5 62 Q 479.3 63.8 481 58.5 L 483 54.5 L 482 53.5 L 484 50.5 L 486 50.5 L 484.5 47 L 483.5 49 L 482.5 47 L 484 46.5 L 476.5 39 Z M 483 60 L 483 61 L 485 61 L 483 60 Z " /><path fill="rgb(239,89,14)" stroke="rgb(239,89,14)" stroke-width="1" opacity="0.9921568627450981" d="M 111.5 42 L 112 44.5 L 113 58 L 127.5 59 L 127.5 57 L 129 60 L 132 61.5 Q 128.5 63 131 64.5 L 127.5 68 L 117.5 73 L 117.5 71 Q 113.8 72.3 115 68.5 L 114 67.5 L 114 61 L 109.5 58 L 105.5 60 L 104 58.5 L 108 54.5 L 108 50.5 L 110 48.5 Q 108.8 43.3 111.5 42 Z M 115 59 L 115 60 L 118 60 L 115 59 Z " /><path fill="rgb(239,89,14)" stroke="rgb(239,89,14)" stroke-width="1" opacity="0.9921568627450981" d="M 105.5 43 L 106 49.5 L 103.5 55 L 98.5 56 L 94 52.5 Q 93 48 95.5 47 L 104 45 L 104.5 49 L 105.5 43 Z " /><path fill="rgb(239,89,14)" stroke="rgb(239,89,14)" stroke-width="1" opacity="0.9921568627450981" d="M 465.5 43 L 466 49.5 L 465 49.5 L 465.5 43 Z " /><path fill="rgb(239,89,14)" stroke="rgb(239,89,14)" stroke-width="1" opacity="0.9921568627450981" d="M 81.5 44 L 83.5 44 L 87 44.5 L 84 45.5 L 89 46 L 89.5 48 L 90.5 44 L 91 54.5 L 94.5 58 L 103 59.5 L 96.5 60 L 89.5 57 L 87.5 58 L 85 57 L 86 60.5 L 85 60.5 L 81 50.5 L 81.5 44 Z " /><path fill="rgb(239,89,14)" stroke="rgb(239,89,14)" stroke-width="1" opacity="0.9921568627450981" d="M 463.5 45 L 465.5 53 L 466 51 L 468 50.5 L 467.5 49 Q 469.8 49.8 469 47.5 L 468.5 46 L 470.5 46 L 474.5 47 Q 476 44.5 477.5 48 Q 479.8 47.3 479 49.5 L 481 52.5 L 479 53.5 L 480 55.5 L 476.5 62 L 476 59 L 474 59.5 L 474.5 61 L 469.5 57 L 468.5 59 L 463.5 58 L 462 58.5 L 463 56 L 457.5 57 L 455 55.5 L 450.5 64 L 450 58.5 L 451 54.5 L 453.5 52 L 453.5 54 Q 456.8 55.1 456 52.5 L 460 46 L 463.5 45 Z " /><path fill="rgb(239,89,14)" stroke="rgb(239,89,14)" stroke-width="1" opacity="0.9921568627450981" d="M 71.5 49 L 74 49.5 L 65.5 54 L 65.5 52 L 61 51.5 L 71.5 49 Z " /><path fill="rgb(239,89,14)" stroke="rgb(239,89,14)" stroke-width="1" opacity="0.9921568627450981" d="M 116.5 50 L 117 54.5 L 116 54.5 L 116.5 50 Z " /><path fill="rgb(239,89,14)" stroke="rgb(239,89,14)" stroke-width="1" opacity="0.9921568627450981" d="M 433.5 51 L 434.5 52 L 445.5 53 L 447 54.5 L 448 57.5 L 444.5 66 L 445 64.5 Q 445.8 62.3 443.5 63 L 441.5 62 L 438.5 63 L 436.5 62 L 436 64 L 432.5 63 L 431 63.5 L 431.5 62 L 425 64.5 L 424.5 66 L 424 64.5 Q 426.3 63.3 425 58.5 L 427.5 54 L 433.5 51 Z " /><path fill="rgb(239,89,14)" stroke="rgb(239,89,14)" stroke-width="1" opacity="0.9921568627450981" d="M 415.5 60 L 415 61.5 L 414.5 63 L 413.5 61 L 415.5 60 Z " /><path fill="rgb(239,89,14)" stroke="rgb(239,89,14)" stroke-width="1" opacity="0.9921568627450981" d="M 308.5 63 L 310.5 64 L 312.5 64 Q 316.3 62.8 315 66.5 L 316 68.5 L 312 79.5 L 311.5 85 L 306.5 81 L 305.5 83 L 299.5 80 L 297.5 80 L 295.5 81 L 295.5 79 Q 291.1 80.5 292 77.5 L 289.5 79 L 288 78.5 L 290.5 68 L 292 68.5 Q 291.3 66.3 293.5 67 L 298.5 70 L 299.5 68 L 303.5 71 Q 306 66.5 308.5 72 L 310 71.5 L 308.5 63 Z " /><path fill="rgb(239,89,14)" stroke="rgb(239,89,14)" stroke-width="1" opacity="0.9921568627450981" d="M 316.5 63 Q 318.8 62.3 318 64.5 L 320.5 65 L 323.5 64 L 327.5 66 Q 336.5 64.5 340.5 68 L 342 67.5 L 343 80.5 L 342 80.5 L 341.5 78 L 330.5 78 L 327.5 77 L 320.5 77 L 320 78.5 L 319 78.5 L 316.5 63 Z " /><path fill="rgb(239,89,14)" stroke="rgb(239,89,14)" stroke-width="1" opacity="0.9921568627450981" d="M 358.5 67 L 361.5 69 L 374.5 70 L 375.5 67 L 376.5 70 L 378.5 69 L 380 73.5 L 379 78.5 L 376.5 81 L 374.5 82 L 370.5 80 Q 368.7 82.8 362.5 81 L 359.5 80 Q 353.2 77.8 355 83.5 L 354 83.5 Q 352.2 74.7 356 71.5 L 355 69 L 358.5 67 Z " /><path fill="rgb(239,89,14)" stroke="rgb(239,89,14)" stroke-width="1" opacity="0.9921568627450981" d="M 371.5 67 L 370.5 69 L 371.5 67 Z " /><path fill="rgb(239,89,14)" stroke="rgb(239,89,14)" stroke-width="1" opacity="0.9921568627450981" d="M 138.5 69 L 147 76.5 L 143.5 79 L 145 76.5 L 142.5 73 L 139.5 74 L 137.5 73 L 135.5 73 L 130.5 74 L 128.5 74 L 121 73.5 L 132.5 72 L 138.5 69 Z " /><path fill="rgb(239,89,14)" stroke="rgb(239,89,14)" stroke-width="1" opacity="0.9921568627450981" d="M 388.5 69 L 389.5 71 L 390 69 L 395 71.5 L 393.5 71 L 391 71.5 L 393 72.5 L 387 75 L 387 73 Q 389.7 74.1 389 71.5 L 388.5 69 Z " /><path fill="rgb(239,89,14)" stroke="rgb(239,89,14)" stroke-width="1" opacity="0.9921568627450981" d="M 128.5 75 L 131 75.5 L 128.5 76 L 128.5 75 Z " /><path fill="rgb(0,0,0)" stroke="rgb(0,0,0)" stroke-width="1" opacity="0" d="M 0 0 L 34.5 0 L 35.5 1 L 36.5 0 L 512 0 L 512 18 L 479.5 18 L 477 21.5 L 466.5 50 L 466 38.5 L 467 37.5 L 467 18 L 434.5 18 L 434 19.5 L 432 24.5 L 417 96 L 439.5 96 Q 440.5 96 440 91.5 L 449.5 50 L 450 55.5 L 449 56.5 L 449 81.5 L 448 82.5 L 448 96 L 463.5 96 L 465 94.5 L 481.5 52 L 482 53.5 L 472 95.5 L 495 96 L 511.5 22 L 512 114 L 66 113.5 Q 120 105.5 150 73.5 L 150 68.5 L 145.5 64 L 140 62 L 141 66.5 L 133.5 71 L 120.5 73 L 120.5 72 Q 129.1 69.6 133 62.5 Q 138.5 56 138 43.5 Q 136 30.5 127.5 24 L 115.5 18 L 102.5 18 Q 90.9 21.4 85 30.5 Q 79 37.5 81 52.5 Q 83.6 63.4 91.5 69 L 93 69.5 L 90.5 70 L 69.5 61 L 66 57.5 Q 65.3 53.8 67.5 53 L 76 49.5 L 67.5 49 L 58.5 51 L 52 55.5 Q 52.3 62.8 57.5 65 L 70.5 71 L 81.5 74 L 98.5 77 L 106.5 77 L 107.5 78 L 121.5 78 Q 122.8 75.7 127.5 77 L 127.5 78 L 118.5 80 L 91.5 80 L 90.5 79 L 81.5 79 L 80.5 78 L 68.5 77 L 53.5 73 L 33.5 64 L 23 54.5 Q 17 47 17 33.5 Q 21.4 12.9 35 1.5 L 33.5 1 Q 18 10 7 23.5 Q 2 28.5 0.5 37 L 0 0 Z M 386 17 L 377 20 L 371 24 L 364 32 L 361 41 L 353 78 Q 352 85 355 89 Q 359 95 369 97 L 389 97 L 403 91 L 411 81 L 421 39 Q 423 28 418 24 Q 413 19 406 17 L 386 17 Z M 172 18 L 170 20 L 156 87 L 154 92 Q 153 96 155 96 L 180 96 L 184 74 L 186 69 Q 185 64 187 64 L 202 64 L 206 49 L 190 48 L 193 37 L 194 34 L 211 34 L 214 21 L 214 18 L 172 18 Z M 219 18 L 204 90 L 202 95 L 203 96 L 228 96 L 245 22 L 245 18 L 219 18 Z M 256 18 L 253 24 L 253 28 L 238 92 Q 237 96 239 96 L 279 96 L 282 83 L 282 80 L 267 80 L 281 19 L 256 18 Z M 301 18 L 284 94 L 285 96 L 310 96 L 317 66 L 318 75 L 318 85 L 319 86 L 319 96 L 346 96 L 343 72 L 342 71 L 342 65 L 340 58 L 340 53 L 362 19 L 337 18 L 323 44 L 321 45 L 327 21 L 327 18 L 301 18 Z M 154 105 L 153 113 Q 156 114 155 110 L 158 110 L 159 108 Q 155 109 156 106 L 162 106 L 154 105 Z M 171 105 L 167 113 L 170 111 L 174 111 Q 173 114 176 113 L 174 107 Q 175 103 171 105 Z M 185 105 L 184 111 Q 183 114 186 113 L 187 110 L 191 113 Q 193 114 192 111 L 188 109 L 193 106 L 193 105 L 189 107 Q 186 108 187 105 L 185 105 Z M 203 105 L 201 107 Q 198 116 208 113 L 210 108 Q 211 104 208 105 L 207 110 L 207 111 L 203 111 L 203 105 Z M 219 105 L 218 110 L 218 113 L 225 113 L 225 111 L 220 111 L 221 109 Q 222 104 219 105 Z M 234 105 Q 233 107 236 106 L 235 110 Q 234 114 237 113 L 238 106 L 241 106 L 234 105 Z M 252 105 L 247 112 L 247 113 L 250 111 L 254 111 Q 253 114 256 113 L 254 107 L 252 105 Z M 265 105 L 265 109 Q 266 111 270 110 L 270 111 L 265 110 L 264 113 L 271 113 L 272 112 L 272 108 L 266 108 L 266 106 L 273 107 L 273 105 L 265 105 Z M 293 105 L 292 111 Q 291 114 294 113 L 295 109 Q 296 104 293 105 Z M 304 105 L 303 110 L 303 113 L 310 113 L 310 111 L 305 111 L 306 109 Q 307 104 304 105 Z M 321 105 L 318 112 Q 317 114 320 113 L 322 109 L 322 111 Q 324 114 325 111 Q 326 108 323 109 L 321 105 Z M 328 105 L 325 109 L 327 109 L 326 112 Q 325 114 328 113 L 329 109 Q 330 104 328 105 Z M 338 105 L 337 112 Q 339 115 345 113 L 346 112 Q 345 107 347 106 L 345 105 L 344 108 L 344 111 L 339 111 L 340 109 Q 341 104 338 105 Z M 367 105 L 366 110 Q 365 114 368 113 L 369 110 L 374 113 L 370 109 L 375 106 L 375 105 L 371 106 L 369 107 Q 370 104 367 105 Z M 385 105 L 382 112 L 384 113 L 391 113 L 392 111 L 392 105 L 385 105 Z M 401 105 L 400 113 Q 404 114 402 109 L 404 109 L 406 112 L 407 110 L 409 109 L 408 111 Q 407 114 410 113 L 411 105 L 406 109 L 405 108 L 401 105 Z M 420 105 L 419 113 Q 422 114 421 110 Q 426 111 428 109 L 428 105 L 420 105 Z M 437 105 L 436 108 L 436 113 L 443 113 Q 446 110 445 105 Q 441 104 443 110 Q 442 112 438 111 L 439 106 L 437 105 Z M 453 105 Q 451 107 456 106 L 455 108 L 456 113 Q 458 111 457 106 L 461 106 L 453 105 Z M 468 105 L 467 113 L 475 113 L 475 111 L 469 111 L 473 109 L 473 108 Q 469 109 470 106 L 476 106 L 468 105 Z M 484 105 L 483 113 Q 486 114 485 110 L 489 112 Q 488 114 492 113 L 490 111 L 492 109 L 492 105 L 484 105 Z " /><path fill="rgb(0,0,0)" stroke="rgb(0,0,0)" stroke-width="1" opacity="0" d="M 392.5 30 L 396 31.5 L 387 75.5 L 383.5 83 L 380.5 84 Q 377.5 82.5 379 76.5 L 388 39.5 L 388 35.5 L 390 31 L 392.5 30 Z " /><path fill="rgb(0,0,0)" stroke="rgb(0,0,0)" stroke-width="1" opacity="0" d="M 91 35 L 93 35.5 L 93 50.5 L 96.5 56 Q 103.5 57.5 105 53.5 L 106 51.5 L 106 35 L 108 35.5 L 108 53.5 Q 106 60 95.5 58 L 91 52.5 L 91 35 Z " /><path fill="rgb(0,0,0)" stroke="rgb(0,0,0)" stroke-width="1" opacity="0" d="M 114 35 Q 124.7 33.1 129 38.5 L 128 45 L 126 45.5 L 129 47 L 130 53.5 L 127.5 57 L 114 58 L 114 35 Z M 116 37 L 116 45 L 125 45 Q 128 44 127 40 Q 124 35 116 37 Z M 116 47 L 116 56 Q 124 57 127 55 L 128 53 L 127 48 Q 124 46 116 47 Z " /><path fill="rgb(0,0,0)" stroke="rgb(0,0,0)" stroke-width="1" opacity="0" d="M 0.5 50 Q 4.5 63 13.5 71 Q 27.1 83.4 47.5 89 L 76.5 94 L 100.5 94 L 117.5 90 L 117.5 91 L 85.5 104 L 75.5 106 L 66.5 106 L 65.5 107 L 53.5 107 L 38.5 104 L 34 99.5 L 33 90.5 L 34 88.5 L 27 94.5 L 25 102.5 L 29.5 109 Q 33.8 112.8 41 113.5 L 0 114 L 0.5 50 Z " /><path fill="rgb(0,0,0)" stroke="rgb(0,0,0)" stroke-width="1" opacity="0" d="M 385 106 Q 392.5 103.5 390 111 L 384.5 111 L 384 109.5 L 385 106 Z " /><path fill="rgb(0,0,0)" stroke="rgb(0,0,0)" stroke-width="1" opacity="0" d="M 422 106 Q 427.2 104.3 426 108 Q 420.8 109.7 422 106 Z " /><path fill="rgb(0,0,0)" stroke="rgb(0,0,0)" stroke-width="1" opacity="0" d="M 486 106 Q 491.2 104.3 490 108 Q 484.8 109.7 486 106 Z " /><path fill="rgb(0,0,0)" stroke="rgb(0,0,0)" stroke-width="1" opacity="0" d="M 172.5 107 L 173 109 L 171 108.5 L 172.5 107 Z " /><path fill="rgb(0,0,0)" stroke="rgb(0,0,0)" stroke-width="1" opacity="0" d="M 251.5 107 L 252.5 109 L 250.5 110 L 251 108.5 L 251.5 107 Z " /><path fill="rgb(241,98,17)" stroke="rgb(241,98,17)" stroke-width="1" opacity="0.996078431372549" d="M 12.5 19 L 19 24.5 L 17.5 28 L 16 26.5 Q 19.8 24.8 16.5 23 L 14.5 24 L 11 20.5 L 12.5 19 Z " /><path fill="rgb(241,98,17)" stroke="rgb(241,98,17)" stroke-width="1" opacity="0.996078431372549" d="M 478.5 20 L 509.5 20 L 510 23 L 508 23.5 L 511 24.5 L 504.5 49 L 504 45.5 L 505 42 L 502.5 41 L 500.5 42 L 492.5 40 L 488.5 40 L 484.5 41 L 479.5 39 L 477 40.5 L 483 45 L 480.5 52 L 479 48 L 475.5 46 L 473.5 47 L 470.5 46 L 468.5 49 L 468 47.5 L 474.5 30 L 476 30.5 L 475 28.5 L 477 28.5 L 476 25.5 L 478 25.5 L 477 22.5 L 479 22.5 L 478.5 20 Z " /><path fill="rgb(241,98,17)" stroke="rgb(241,98,17)" stroke-width="1" opacity="0.996078431372549" d="M 464.5 34 Q 467.1 36.4 466 42.5 L 464.5 51 L 463.5 45 L 460 46 L 456 54 L 452.5 53 L 450.5 58 L 450 53.5 L 451 51.5 L 450 49.5 L 450.5 48 Q 447.9 47.2 449 50.5 L 447.5 56 L 445.5 53 L 434 52 L 434.5 50 L 436 50.5 Q 435.3 48.3 437.5 49 L 464.5 34 Z " /><path fill="rgb(241,98,17)" stroke="rgb(241,98,17)" stroke-width="1" opacity="0.996078431372549" d="M 111.5 41 Q 114.8 42.8 113 49.5 L 112 49.5 Q 113.3 44.3 110.5 43 L 109.5 49 L 109 42 L 111.5 41 Z " /><path fill="rgb(241,98,17)" stroke="rgb(241,98,17)" stroke-width="1" opacity="0.996078431372549" d="M 99.5 42 L 106 42.5 L 104.5 49 L 104 45 L 94.5 48 L 94 43 L 99.5 42 Z " /><path fill="rgb(241,98,17)" stroke="rgb(241,98,17)" stroke-width="1" opacity="0.996078431372549" d="M 85.5 43 L 91 43.5 L 89.5 48 L 89 46 L 84 45.5 L 87 44.5 L 85.5 43 Z " /><path fill="rgb(241,98,17)" stroke="rgb(241,98,17)" stroke-width="1" opacity="0.996078431372549" d="M 117.5 47 L 124.5 55 L 117 55 L 117 50.5 L 116 48.5 L 117.5 47 Z " /><path fill="rgb(241,98,17)" stroke="rgb(241,98,17)" stroke-width="1" opacity="0.996078431372549" d="M 484.5 47 L 486 50.5 L 484 50.5 L 483.5 52 L 483 49.5 L 484.5 47 Z " /><path fill="rgb(241,98,17)" stroke="rgb(241,98,17)" stroke-width="1" opacity="0.996078431372549" d="M 311.5 48 L 312 50 L 316.5 49 L 318.5 50 L 320.5 50 L 324.5 51 L 328.5 51 L 332.5 52 L 334.5 52 L 337.5 51 L 338 54 Q 341.5 52.9 340 60.5 Q 342.5 62 341 67.5 L 339.5 67 L 327.5 66 L 323.5 64 L 320.5 65 L 318 64.5 Q 318.7 61.9 316 63 L 315.5 67 L 315 64 L 311.5 63 L 309.5 64 L 308 63.5 L 310 71.5 L 308.5 72 Q 306.2 66.7 304 70.5 L 306 71.5 L 304.5 72 L 299.5 68 L 298.5 70 L 292 67 L 291.5 69 L 291 65.5 Q 293.2 64.3 292 59.5 L 295.5 54 L 298.5 56 L 302.5 56 L 306 57 L 305 49 L 311.5 48 Z " /><path fill="rgb(241,98,17)" stroke="rgb(241,98,17)" stroke-width="1" opacity="0.996078431372549" d="M 360.5 54 L 370.5 56 L 371.5 54 L 372.5 56 L 374.5 56 L 382 54 L 383 59.5 L 379.5 72 L 378.5 69 L 376.5 70 L 374.5 70 L 359.5 68 L 356 68.5 L 358 55 L 360.5 54 Z " /><path fill="rgb(241,98,17)" stroke="rgb(241,98,17)" stroke-width="1" opacity="0.996078431372549" d="M 395.5 56 L 397.5 57 L 403.5 57 L 405.5 58 L 407.5 58 L 409.5 57 L 414 58 L 415 60.5 L 391.5 72 L 391.5 71 L 394 70.5 L 390 69 L 388.5 73 L 388 71.5 L 390 60 Q 393.3 61.1 392 57 L 394.5 57 L 395.5 56 Z " /><path fill="rgb(241,98,17)" stroke="rgb(241,98,17)" stroke-width="1" opacity="0.996078431372549" d="M 125.5 58 L 128 58.5 L 124.5 60 L 125.5 58 Z " /><path fill="rgb(241,98,17)" stroke="rgb(241,98,17)" stroke-width="1" opacity="0.996078431372549" d="M 114.5 59 L 118 59.5 L 114.5 60 L 114.5 59 Z " /><path fill="rgb(241,98,17)" stroke="rgb(241,98,17)" stroke-width="1" opacity="0.996078431372549" d="M 131.5 62 L 129.5 65 L 131.5 62 Z " /><path fill="rgb(241,98,17)" stroke="rgb(241,98,17)" stroke-width="1" opacity="0.996078431372549" d="M 141.5 64 L 145.5 66 Q 147.3 63.3 149 67.5 L 150 71.5 L 148 76 L 139 69.5 L 142 65.5 L 141.5 64 Z " /><path fill="rgb(237,80,11)" stroke="rgb(237,80,11)" stroke-width="1" opacity="0.996078431372549" d="M 10.5 21 L 12 23.5 L 10.5 26 L 9.5 24 L 6 26.5 L 10.5 21 Z " /><path fill="rgb(237,80,11)" stroke="rgb(237,80,11)" stroke-width="1" opacity="0.996078431372549" d="M 13.5 24 L 15.5 27 L 13.5 24 Z " /><path fill="rgb(237,80,11)" stroke="rgb(237,80,11)" stroke-width="1" opacity="0.996078431372549" d="M 4.5 29 L 5 31 L 3 30.5 L 4.5 29 Z " /><path fill="rgb(237,80,11)" stroke="rgb(237,80,11)" stroke-width="1" opacity="0.996078431372549" d="M 3.5 32 L 4 36.5 L 2.5 41 Q 0 40 1 35.5 L 3.5 32 Z " /><path fill="rgb(237,80,11)" stroke="rgb(237,80,11)" stroke-width="1" opacity="0.996078431372549" d="M 59.5 51 L 65.5 52 Q 66.8 49.8 68 52.5 Q 64.5 53 65 57.5 L 67.5 61 Q 69 58.5 70.5 62 Q 81.5 69 96.5 72 L 95.5 70 L 90 66.5 Q 90.8 64.3 88.5 65 Q 85.3 63.7 85.5 59 L 84 59.5 L 85 57 L 87 56.5 L 86.5 55 L 88.5 56 L 90 55.5 Q 87.8 56.8 90.5 58 L 95.5 59 L 97.5 58 L 97.5 59 L 96 59.5 L 102.5 60 L 102.5 58 L 104.5 59 L 106 58.5 L 105.5 60 L 108 59.5 L 107.5 58 L 111.5 58 L 113 59.5 L 112.5 61 Q 115.5 60.5 114 67.5 L 115 71 L 118.5 70 L 119.5 73 L 128.5 74 L 131.5 73 L 136.5 74 L 138.5 74 L 140 73.5 L 139.5 72 L 145 75.5 L 140.5 82 L 127.5 80 L 126 78.5 L 127.5 78 L 129 78.5 Q 129.6 75.8 123.5 77 L 121.5 77 L 115.5 77 L 111.5 75 L 104.5 75 L 83.5 71 L 70.5 70 L 58.5 65 L 53 59.5 L 53 55 L 55 55 Q 53.9 52.3 56.5 53 L 58.5 53 L 60 52.5 L 59.5 51 Z M 56 60 L 58 62 Q 59 59 56 60 Z M 129 75 L 131 77 Q 132 74 129 75 Z " /><path fill="rgb(237,80,11)" stroke="rgb(237,80,11)" stroke-width="1" opacity="0.996078431372549" d="M 455.5 55 L 458 55.5 L 457.5 57 L 463 56 Q 461.6 59.7 467.5 58 L 469 58.5 L 469.5 57 L 474.5 61 L 474.5 59 Q 477.1 58.2 476 61.5 L 477 62.5 L 475 66.5 L 472.5 71 L 461.5 67 Q 455.3 68.8 453.5 66 L 450 68 L 451 61.5 L 455.5 55 Z " /><path fill="rgb(237,80,11)" stroke="rgb(237,80,11)" stroke-width="1" opacity="0.996078431372549" d="M 496.5 56 L 499.5 57 L 502 56 L 503 59.5 L 499 61 Q 500.1 58.3 497.5 59 L 496.5 56 Z " /><path fill="rgb(237,80,11)" stroke="rgb(237,80,11)" stroke-width="1" opacity="0.996078431372549" d="M 482.5 60 L 486.5 62 L 487.5 60 Q 489 63.5 490.5 61 L 500 64.5 L 501 68.5 L 498.5 76 L 498 73 L 494.5 72 L 492.5 72 L 489.5 73 L 481.5 70 L 479 71 L 479 65.5 L 481 65 L 481 63.5 L 480 61.5 L 481.5 62 L 485 61.5 Q 481.7 61.6 482.5 60 Z " /><path fill="rgb(237,80,11)" stroke="rgb(237,80,11)" stroke-width="1" opacity="0.996078431372549" d="M 412.5 62 L 415 63.5 L 413 72 L 404.5 70 L 402.5 70 Q 400.3 70.8 401 68.5 L 412.5 62 Z " /><path fill="rgb(237,80,11)" stroke="rgb(237,80,11)" stroke-width="1" opacity="0.996078431372549" d="M 424.5 62 L 425.5 64 L 431.5 62 L 436 64 L 436.5 62 L 438.5 63 L 441.5 62 L 445 63 L 446 66.5 L 442.5 75 L 438.5 73 L 435.5 74 L 424.5 72 L 423 72.5 Q 422 66.5 425 64.5 L 424.5 62 Z " /><path fill="rgb(237,80,11)" stroke="rgb(237,80,11)" stroke-width="1" opacity="0.996078431372549" d="M 291.5 77 L 292 79 Q 296.5 78.2 298.5 81 L 300.5 81 L 305.5 83 L 306 81.5 L 305.5 80 L 312 85.5 L 310 88.5 L 311 90.5 L 310 95 L 285.5 95 L 285 93.5 L 286.5 94 L 289.5 93 L 291 93.5 L 291 92 L 286 92 L 286 88.5 Q 288.3 87.3 287 82.5 L 289 80.5 L 288.5 79 L 291.5 77 Z " /><path fill="rgb(237,80,11)" stroke="rgb(237,80,11)" stroke-width="1" opacity="0.996078431372549" d="M 318.5 77 L 319.5 79 L 320 77 L 327.5 77 L 328.5 78 L 330.5 78 L 342 78 Q 341 82.3 344 81.5 L 344 87.5 L 345 88.5 L 345 95 L 320.5 95 Q 319.5 95 320 90.5 L 319 87.5 L 318.5 77 Z " /><path fill="rgb(237,80,11)" stroke="rgb(237,80,11)" stroke-width="1" opacity="0.996078431372549" d="M 312.5 79 L 313 81.5 L 312 81.5 L 312.5 79 Z " /><path fill="rgb(237,80,11)" stroke="rgb(237,80,11)" stroke-width="1" opacity="0.996078431372549" d="M 375.5 79 L 375.5 82 L 374 81.5 Q 374.8 83.8 372.5 83 L 358.5 91 L 354 84.5 L 355 80 L 360.5 81 L 362.5 81 Q 368.7 82.8 370.5 80 L 373.5 81 L 375.5 79 Z " /><path fill="rgb(232,56,6)" stroke="rgb(232,56,6)" stroke-width="1" opacity="0.9921568627450981" d="M 4.5 42 Q 6 45.5 7.5 43 L 13.5 44 L 17.5 47 L 19 46.5 L 18 49 L 20 49.5 L 19.5 51 L 22 52.5 L 21.5 54 L 24 55.5 L 27.5 60 L 50.5 73 L 51.5 72 L 53.5 74 L 54.5 73 L 58.5 75 L 70.5 77 L 73.5 79 L 77.5 78 L 80.5 80 L 85.5 79 L 90.5 81 Q 92.3 78.3 98.5 80 L 100.5 82 L 108 82.5 L 105 87 L 112.5 89 L 116.5 88 L 117.5 90 L 113.5 89 L 113.5 90 L 115 90.5 L 113.5 91 L 109.5 90 L 109.5 91 L 111 91.5 L 108.5 92 L 104.5 91 L 104.5 93 L 97.5 92 L 95.5 94 L 81.5 94 L 80.5 93 L 63.5 92 L 39.5 86 Q 20.9 79.1 9 65.5 L 2 53.5 L 3 52.5 L 3 44.5 L 4.5 42 Z " /><path fill="rgb(232,56,6)" stroke="rgb(232,56,6)" stroke-width="1" opacity="0.9921568627450981" d="M 101.5 76 L 104 76.5 L 101.5 77 L 101.5 76 Z " /><path fill="rgb(232,56,6)" stroke="rgb(232,56,6)" stroke-width="1" opacity="0.9921568627450981" d="M 449.5 79 L 451.5 79 L 466.5 81 L 469 83.5 L 467 83.5 L 468 85.5 L 463.5 95 L 448.5 95 L 448 93.5 L 449 92.5 L 450 80.5 L 449.5 79 Z " /><path fill="rgb(232,56,6)" stroke="rgb(232,56,6)" stroke-width="1" opacity="0.9921568627450981" d="M 441.5 81 L 442 84.5 Q 439.4 87.4 440 93.5 L 438.5 95 L 425.5 94 L 422.5 95 L 419 94 L 418 89.5 L 420 89.5 L 420 87 L 426.5 87 L 429.5 88 L 434.5 87 L 435 89 Q 437.7 90.1 437 87.5 L 441.5 81 Z " /><path fill="rgb(232,56,6)" stroke="rgb(232,56,6)" stroke-width="1" opacity="0.9921568627450981" d="M 375.5 82 Q 377.3 85.1 379 83.5 L 378.5 85 L 381.5 86 L 386.5 83 Q 387.3 85.8 391.5 85 L 395.5 85 L 399.5 86 L 401.5 85 L 403.5 85 L 406 87.5 Q 404.3 85.9 402.5 89 L 401 89.5 Q 403.3 90.8 400.5 92 L 399 91.5 L 398.5 93 L 396.5 92 L 396.5 94 L 394 93 L 393.5 95 L 391 94 Q 392.1 96.7 389.5 96 L 387.5 95 Q 386.5 98 381.5 97 L 376.5 96 L 371.5 97 L 368.5 95 L 366.5 96 L 363 95 L 362.5 93 Q 361.2 95.3 360 92.5 Q 358.9 89.2 361.5 90 L 371.5 84 L 373.5 85 L 373.5 83 L 375.5 82 Z " /><path fill="rgb(232,56,6)" stroke="rgb(232,56,6)" stroke-width="1" opacity="0.9921568627450981" d="M 477 82 L 487.5 84 L 489.5 84 Q 497.8 81.3 495 89.5 L 496 91.5 L 495 95 L 473.5 95 L 473 92.5 L 476 85.5 L 475 83.5 L 476 83.5 L 476.5 85 L 477 82 Z " /><path fill="rgb(232,56,6)" stroke="rgb(232,56,6)" stroke-width="1" opacity="0.9921568627450981" d="M 111.5 85 L 112 87 L 110 86.5 L 111.5 85 Z " /><path fill="rgb(232,56,6)" stroke="rgb(232,56,6)" stroke-width="1" opacity="0.9921568627450981" d="M 120.5 88 Q 121.3 90.8 125.5 90 L 127 89.5 L 126.5 92 L 125 91.5 L 124.5 93 L 122.5 93 L 121 93.5 L 121.5 95 L 120 94.5 L 119.5 96 L 118 95.5 L 117.5 97 L 116 96.5 L 115.5 98 L 114 97.5 Q 114.8 99.8 112.5 99 Q 86.6 114.6 44.5 114 L 35.5 112 L 27 105.5 L 26 97.5 L 32.5 89 Q 31.5 99 36.5 103 L 49.5 107 L 70.5 107 L 87.5 104 L 106.5 96 L 108 96.5 Q 107.3 94.3 109.5 95 L 111 95.5 L 111.5 94 L 113 94.5 L 113.5 93 L 115 93.5 L 115.5 92 L 117.5 93 L 117.5 91 L 119.5 92 L 119.5 90 L 121.5 91 L 120.5 88 Z " /><path fill="rgb(2,144,200)" stroke="rgb(2,144,200)" stroke-width="1" opacity="0.9647058823529412" d="M 190.5 43 L 191 45.5 L 190 45.5 L 190.5 43 Z " /><path fill="rgb(2,144,200)" stroke="rgb(2,144,200)" stroke-width="1" opacity="0.9647058823529412" d="M 164.5 46 L 165 49.5 L 164 49.5 L 164.5 46 Z " /><path fill="rgb(2,144,200)" stroke="rgb(2,144,200)" stroke-width="1" opacity="0.9647058823529412" d="M 189.5 47 L 190.5 48 L 200 48.5 L 189 49 L 189.5 47 Z " /><path fill="rgb(2,144,200)" stroke="rgb(2,144,200)" stroke-width="1" opacity="0.9647058823529412" d="M 184.5 50 L 186.5 50 L 193.5 51 L 195.5 50 L 197.5 50 Q 202 49 203 51.5 L 204 57.5 L 202 64 L 186.5 64 Q 185.5 64 186 68.5 L 184 73.5 L 180 96 L 154.5 96 Q 153.5 96 154 91.5 L 161.5 60 L 162.5 62 L 163 59.5 L 162 55.5 L 163.5 51 L 164.5 55 L 170.5 52 Q 172 55.5 173.5 53 L 175.5 54 Q 177 50.5 178.5 53 Q 183.9 54.9 183 51.5 L 184.5 50 Z M 164 55 L 163 58 L 164 58 L 164 55 Z M 188 62 L 188 63 L 192 63 L 188 62 Z " /><path fill="rgb(2,144,200)" stroke="rgb(2,144,200)" stroke-width="1" opacity="0.9647058823529412" d="M 272.5 51 L 273 54.5 L 267 80 L 281.5 80 L 282 82.5 L 279 96 L 238.5 96 Q 237.5 96 238 91.5 L 244.5 64 L 245.5 66 L 246 64 L 248.5 63 L 254.5 67 L 257.5 66 L 258.5 67 L 262 63.5 L 270.5 53 L 271.5 55 L 272.5 51 Z " /><path fill="rgb(2,144,200)" stroke="rgb(2,144,200)" stroke-width="1" opacity="0.9647058823529412" d="M 211.5 54 L 212 57 L 218.5 59 L 218.5 57 Q 223 56.5 223.5 60 L 225.5 60 L 228.5 61 L 230.5 60 L 234.5 63 L 235.5 59 L 236 62.5 L 234.5 67 L 233.5 65 L 233 67.5 L 234 71.5 L 228 96 L 202.5 96 L 202 94.5 L 211.5 54 Z M 212 58 L 211 61 L 212 61 L 212 58 Z " /><path fill="rgb(2,144,200)" stroke="rgb(2,144,200)" stroke-width="1" opacity="0.9647058823529412" d="M 245.5 59 L 246 62.5 L 245 62.5 L 245.5 59 Z " /><path fill="rgb(237,74,9)" stroke="rgb(237,74,9)" stroke-width="1" opacity="0.9921568627450981" d="M 11.5 22 L 17 28.5 L 17 30.5 L 17 41.5 L 19 48.5 L 18 48.5 L 16.5 46 L 14.5 45 L 13 45.5 L 13.5 44 L 7.5 43 L 5 44.5 Q 7.3 43.3 4.5 42 L 3 44.5 L 2.5 53 Q -1 48.5 0 39.5 L 3 40.5 L 5 27 L 8 25.5 Q 5.8 24.3 8.5 23 L 10.5 26 L 12 23.5 L 11.5 22 Z " /><path fill="rgb(237,74,9)" stroke="rgb(237,74,9)" stroke-width="1" opacity="0.9921568627450981" d="M 20.5 52 L 21.5 54 L 20.5 52 Z " /><path fill="rgb(237,74,9)" stroke="rgb(237,74,9)" stroke-width="1" opacity="0.9921568627450981" d="M 55.5 60 Q 59.3 59 58 62 L 55.5 63 Q 52.5 61.5 55.5 60 Z " /><path fill="rgb(237,74,9)" stroke="rgb(237,74,9)" stroke-width="1" opacity="0.9921568627450981" d="M 453.5 66 Q 455.3 68.8 461.5 67 L 472.5 71 L 474 70.5 L 467.5 85 L 467 83.5 Q 469.3 82.3 466.5 81 L 451.5 79 L 449.5 84 L 449 80.5 L 449 78.5 L 449 69.5 L 450.5 68 L 453.5 66 Z " /><path fill="rgb(237,74,9)" stroke="rgb(237,74,9)" stroke-width="1" opacity="0.9921568627450981" d="M 399.5 69 L 403.5 71 L 405.5 71 Q 410.9 70.1 413 72.5 Q 409.5 74 412 75.5 Q 410 85.5 402.5 90 L 399.5 92 L 401.5 89 L 403 88.5 L 401 87.5 L 402.5 87 Q 403.8 89.3 405 86.5 L 401.5 85 L 399.5 86 L 394.5 84 L 391.5 85 L 387.5 84 L 385.5 84 L 381.5 86 L 376 82.5 Q 375.3 79.9 378 81 Q 376.2 86.3 383.5 84 L 388.5 75 L 399.5 69 Z " /><path fill="rgb(237,74,9)" stroke="rgb(237,74,9)" stroke-width="1" opacity="0.9921568627450981" d="M 72.5 70 L 76 70.5 L 72.5 71 L 72.5 70 Z " /><path fill="rgb(237,74,9)" stroke="rgb(237,74,9)" stroke-width="1" opacity="0.9921568627450981" d="M 95.5 70 L 96.5 72 Q 93.7 72.7 95.5 70 Z " /><path fill="rgb(237,74,9)" stroke="rgb(237,74,9)" stroke-width="1" opacity="0.9921568627450981" d="M 478.5 70 L 480.5 71 L 482.5 70 L 489.5 73 L 492.5 72 L 495.5 73 Q 499.3 71.8 498 75.5 L 499 77.5 L 495.5 90 L 495 84 L 488.5 83 L 486.5 84 L 477 82 L 475.5 87 L 475 85.5 L 477 79.5 L 477 74.5 L 479 72.5 L 478.5 70 Z " /><path fill="rgb(237,74,9)" stroke="rgb(237,74,9)" stroke-width="1" opacity="0.9921568627450981" d="M 77.5 71 L 89.5 72 L 91.5 74 L 96.5 73 L 115 76.5 L 104.5 77 L 103.5 76 L 85.5 74 L 77.5 72 L 77.5 71 Z " /><path fill="rgb(237,74,9)" stroke="rgb(237,74,9)" stroke-width="1" opacity="0.9921568627450981" d="M 108.5 71 L 111.5 73 L 113 72.5 L 110.5 74 L 108.5 71 Z " /><path fill="rgb(237,74,9)" stroke="rgb(237,74,9)" stroke-width="1" opacity="0.9921568627450981" d="M 422.5 72 L 424.5 72 L 437.5 74 L 439.5 74 L 442.5 75 L 444 74.5 L 442 77.5 L 442 79.5 L 437 89 Q 434.3 90.1 435 87.5 L 433.5 88 L 428.5 87 L 426.5 87 L 420 87 L 420 89.5 L 419 89.5 L 422.5 72 Z " /><path fill="rgb(237,74,9)" stroke="rgb(237,74,9)" stroke-width="1" opacity="0.9921568627450981" d="M 123.5 79 L 140 82.5 L 125.5 92 L 125.5 90 L 122.5 90 L 116.5 93 L 116.5 92 L 126 87.5 L 123.5 87 Q 118.1 90.6 109.5 91 L 109.5 90 L 113 89.5 Q 110.3 86.3 105 87 L 108 82.5 L 100 81.5 L 113.5 81 L 123.5 79 Z M 112 85 L 110 87 L 112 87 L 112 85 Z M 114 88 L 114 89 L 117 89 L 114 88 Z " /><path fill="rgb(237,74,9)" stroke="rgb(237,74,9)" stroke-width="1" opacity="0.9921568627450981" d="M 372.5 83 L 374.5 86 L 372 85 L 372.5 83 Z " /><path fill="rgb(237,74,9)" stroke="rgb(237,74,9)" stroke-width="1" opacity="0.9921568627450981" d="M 370.5 84 L 369.5 86 L 368 85.5 L 370.5 84 Z " /><path fill="rgb(237,74,9)" stroke="rgb(237,74,9)" stroke-width="1" opacity="0.9921568627450981" d="M 104.5 91 L 108 91.5 L 104.5 92 L 104.5 91 Z " /><path fill="rgb(237,74,9)" stroke="rgb(237,74,9)" stroke-width="1" opacity="0.9921568627450981" d="M 285.5 91 L 291 92 L 290.5 94 L 288.5 94 L 285 92.5 L 285.5 91 Z " /><path fill="rgb(237,74,9)" stroke="rgb(237,74,9)" stroke-width="1" opacity="0.9921568627450981" d="M 97.5 92 L 102 92.5 L 97.5 93 L 97.5 92 Z " /><path fill="rgb(237,74,9)" stroke="rgb(237,74,9)" stroke-width="1" opacity="0.9921568627450981" d="M 123.5 92 L 122.5 94 L 120.5 95 L 121.5 93 L 123.5 92 Z " /><path fill="rgb(237,74,9)" stroke="rgb(237,74,9)" stroke-width="1" opacity="0.9921568627450981" d="M 396.5 92 L 398 92.5 L 394.5 94 L 394.5 93 L 396.5 92 Z " /><path fill="rgb(237,74,9)" stroke="rgb(237,74,9)" stroke-width="1" opacity="0.9921568627450981" d="M 418.5 92 L 419 94 L 422 94.5 L 418 95 L 418.5 92 Z " /><path fill="rgb(237,74,9)" stroke="rgb(237,74,9)" stroke-width="1" opacity="0.9921568627450981" d="M 425.5 94 L 433 94.5 L 425.5 95 L 425.5 94 Z " /><path fill="rgb(237,74,9)" stroke="rgb(237,74,9)" stroke-width="1" opacity="0.9921568627450981" d="M 376.5 96 L 381 96.5 L 376.5 97 L 376.5 96 Z " /></svg>